<svg width="1601" height="498" viewBox="0 0 1601 498" fill="none" xmlns="http://www.w3.org/2000/svg">
<path d="M1434.44 254.8C1438.98 252.133 1445.78 249.6 1454.84 247.2C1464.18 244.8 1473.51 243.6 1482.84 243.6C1496.18 243.6 1507.91 245.6 1518.04 249.6C1528.44 253.333 1535.11 259.333 1538.04 267.6C1542.84 281.467 1548.04 297.6 1553.64 316C1559.24 334.4 1564.84 353.467 1570.44 373.2C1576.04 392.667 1581.51 412 1586.84 431.2C1592.18 450.133 1596.84 466.933 1600.84 481.6C1597.64 485.333 1592.84 488.267 1586.44 490.4C1580.04 492.8 1572.44 494 1563.64 494C1557.24 494 1551.78 493.467 1547.24 492.4C1542.98 491.333 1539.38 489.733 1536.44 487.6C1533.78 485.467 1531.51 482.667 1529.64 479.2C1528.04 475.733 1526.58 471.733 1525.24 467.2L1518.04 439.6H1445.64C1443.51 447.6 1441.38 455.867 1439.24 464.4C1437.11 472.933 1434.98 481.2 1432.84 489.2C1429.11 490.533 1425.11 491.6 1420.84 492.4C1416.84 493.467 1411.91 494 1406.04 494C1392.44 494 1382.31 491.733 1375.64 487.2C1369.24 482.4 1366.04 475.867 1366.04 467.6C1366.04 463.867 1366.58 460.133 1367.64 456.4C1368.71 452.667 1369.91 448.267 1371.24 443.2C1373.11 436 1375.64 427.067 1378.84 416.4C1382.31 405.733 1386.04 394.267 1390.04 382C1394.04 369.467 1398.31 356.667 1402.84 343.6C1407.38 330.533 1411.64 318.267 1415.64 306.8C1419.64 295.067 1423.24 284.667 1426.44 275.6C1429.91 266.533 1432.58 259.6 1434.44 254.8ZM1482.44 306.4C1478.71 317.6 1474.44 330.133 1469.64 344C1465.11 357.6 1460.98 371.467 1457.24 385.6H1506.84C1503.11 371.2 1499.24 357.2 1495.24 343.6C1491.51 329.733 1488.04 317.333 1484.84 306.4H1482.44Z" fill="#01579B"/>
<path d="M1330.96 481.6C1327.23 485.333 1321.76 488.133 1314.56 490C1307.63 492.133 1299.23 493.2 1289.36 493.2C1279.49 493.2 1270.16 491.733 1261.36 488.8C1252.56 485.867 1245.36 478.8 1239.76 467.6L1200.16 386.8C1196.16 378.533 1192.56 370.8 1189.36 363.6C1186.16 356.133 1182.69 347.6 1178.96 338L1176.56 338.4C1177.63 352.8 1178.16 367.467 1178.16 382.4C1178.43 397.333 1178.56 412 1178.56 426.4V488.4C1175.63 489.2 1171.09 490 1164.96 490.8C1159.09 491.6 1153.23 492 1147.36 492C1141.49 492 1136.29 491.6 1131.76 490.8C1127.23 490 1123.49 488.4 1120.56 486C1117.63 483.6 1115.36 480.4 1113.76 476.4C1112.16 472.133 1111.36 466.667 1111.36 460V260C1115.09 254.667 1120.83 250.667 1128.56 248C1136.29 245.333 1144.56 244 1153.36 244C1163.23 244 1172.56 245.6 1181.36 248.8C1190.43 251.733 1197.63 258.667 1202.96 269.6L1242.96 350.4C1246.96 358.667 1250.56 366.533 1253.76 374C1256.96 381.2 1260.43 389.6 1264.16 399.2L1266.16 398.8C1265.09 384.4 1264.43 370 1264.16 355.6C1263.89 341.2 1263.76 326.8 1263.76 312.4V247.6C1266.69 246.8 1271.09 246 1276.96 245.2C1283.09 244.4 1289.09 244 1294.96 244C1306.69 244 1315.63 246.133 1321.76 250.4C1327.89 254.4 1330.96 262.933 1330.96 276V481.6Z" fill="#01579B"/>
<path d="M1059.48 488.4C1056.55 489.2 1051.88 490 1045.48 490.8C1039.35 491.6 1033.22 492 1027.08 492C1020.95 492 1015.48 491.467 1010.68 490.4C1006.15 489.6 1002.28 488 999.084 485.6C995.884 483.2 993.484 479.867 991.884 475.6C990.284 471.333 989.484 465.733 989.484 458.8V247.6C992.418 247.067 997.084 246.4 1003.48 245.6C1009.88 244.533 1016.02 244 1021.88 244C1028.02 244 1033.35 244.533 1037.88 245.6C1042.68 246.4 1046.68 248 1049.88 250.4C1053.08 252.8 1055.48 256.133 1057.08 260.4C1058.68 264.667 1059.48 270.267 1059.48 277.2V488.4Z" fill="#01579B"/>
<path d="M756.019 303.6C754.152 300.667 752.419 296.667 750.819 291.6C749.219 286.533 748.419 281.2 748.419 275.6C748.419 265.2 750.686 257.733 755.219 253.2C760.019 248.667 766.152 246.4 773.619 246.4H948.019C949.886 249.333 951.619 253.333 953.219 258.4C954.819 263.467 955.619 268.8 955.619 274.4C955.619 284.8 953.219 292.267 948.419 296.8C943.886 301.333 937.886 303.6 930.419 303.6H886.019V488.4C883.086 489.2 878.419 490 872.019 490.8C865.886 491.6 859.752 492 853.619 492C847.486 492 842.019 491.467 837.219 490.4C832.686 489.6 828.819 488 825.619 485.6C822.419 483.2 820.019 479.867 818.419 475.6C816.819 471.333 816.019 465.733 816.019 458.8V303.6H756.019Z" fill="#01579B"/>
<path d="M481 368.4C481 347.6 484.2 329.2 490.6 313.2C497.267 297.2 506.2 283.867 517.4 273.2C528.867 262.267 542.2 254 557.4 248.4C572.867 242.8 589.533 240 607.4 240C625.267 240 641.8 242.8 657 248.4C672.467 254 685.933 262.267 697.4 273.2C708.867 283.867 717.8 297.2 724.2 313.2C730.867 329.2 734.2 347.6 734.2 368.4C734.2 389.2 731 407.733 724.6 424C718.2 440 709.267 453.467 697.8 464.4C686.6 475.067 673.267 483.2 657.8 488.8C642.333 494.4 625.533 497.2 607.4 497.2C589.267 497.2 572.467 494.4 557 488.8C541.533 482.933 528.2 474.533 517 463.6C505.8 452.667 497 439.2 490.6 423.2C484.2 407.2 481 388.933 481 368.4ZM553 368.4C553 392.667 557.933 410.8 567.8 422.8C577.667 434.8 590.867 440.8 607.4 440.8C624.2 440.8 637.533 434.8 647.4 422.8C657.267 410.8 662.2 392.667 662.2 368.4C662.2 344.4 657.267 326.4 647.4 314.4C637.8 302.4 624.6 296.4 607.8 296.4C591.267 296.4 577.933 302.4 567.8 314.4C557.933 326.133 553 344.133 553 368.4Z" fill="#01579B"/>
<path fill-rule="evenodd" clip-rule="evenodd" d="M189.32 15.3928C171.3 19.7638 155.849 35.6868 152.077 53.7718C151.351 57.2538 150.972 77.2278 150.972 112.022V164.973H98.0209C63.2269 164.973 43.2529 165.352 39.7709 166.078C21.1599 169.959 4.95792 186.161 1.07692 204.772C-2.39708 221.432 2.61992 237.864 14.8829 249.986C18.5069 253.569 23.7559 257.716 26.5469 259.203C37.1519 264.854 38.6129 264.973 97.1819 264.973H150.972V317.924C150.972 352.718 151.351 372.692 152.077 376.174C158.774 408.288 194.707 425.303 224.233 410.341C230.948 406.938 241.937 395.949 245.34 389.234C250.876 378.309 250.972 377.105 250.972 318.763V264.973H304.762C363.104 264.973 364.308 264.877 375.233 259.341C378.108 257.884 383.437 253.715 387.075 250.076C390.714 246.438 394.883 241.109 396.34 238.234C408.6 214.039 400.227 185.73 376.629 171.592C365.987 165.216 363.318 164.973 304.025 164.973H250.972V111.183C250.972 52.6138 250.853 51.1528 245.202 40.5478C243.715 37.7568 239.568 32.5078 235.985 28.8838C223.583 16.3378 206.173 11.3048 189.32 15.3928Z" fill="#FB8C00"/>
<path d="M287.635 384.783V488.104C283.689 489.18 277.411 490.257 268.8 491.333C260.549 492.409 252.298 492.947 244.046 492.947C235.795 492.947 228.44 492.23 221.983 490.795C215.884 489.719 210.682 487.566 206.377 484.337C202.431 481.108 199.381 476.624 197.229 470.884C195.076 465.144 194 457.61 194 448.282V194.822C194 187.288 195.973 181.548 199.919 177.602C204.225 173.297 209.965 169.888 217.14 167.377C229.337 163.072 243.508 160.023 259.652 158.229C275.796 156.076 293.016 155 311.313 155C360.821 155 398.132 165.404 423.244 186.212C448.357 207.019 460.914 235.182 460.914 270.699C460.914 292.941 455.174 311.955 443.693 327.741C432.213 343.526 418.581 355.723 402.795 364.334C415.71 381.913 428.446 398.415 441.003 413.842C453.559 429.268 463.425 443.26 470.6 455.816C467.012 468.373 460.375 478.059 450.689 484.875C441.361 491.333 430.778 494.562 418.939 494.562C411.047 494.562 404.23 493.665 398.49 491.871C392.75 490.077 387.728 487.566 383.423 484.337C379.117 481.108 375.171 477.162 371.584 472.498C367.996 467.834 364.588 462.812 361.359 457.431L316.156 384.783H287.635ZM321.537 313.211C335.17 313.211 345.933 309.803 353.825 302.986C361.718 295.811 365.664 285.408 365.664 271.775C365.664 258.142 361.18 247.918 352.211 241.101C343.601 233.926 329.789 230.339 310.775 230.339C305.393 230.339 301.088 230.518 297.86 230.877C294.631 231.235 291.043 231.774 287.097 232.491V313.211H321.537Z" fill="#01579B"/>
<path d="M166.472 153.473V150.973V98.0218C166.472 80.6307 166.567 66.9569 166.752 57.2022C166.844 52.3233 166.959 48.4395 167.095 45.5677C167.235 42.6147 167.391 40.9222 167.524 40.2823C171.098 23.1464 185.823 7.96696 202.909 3.82237C218.892 -0.054541 235.409 4.70591 247.207 16.6414L247.207 16.6415C250.71 20.1844 254.67 25.2357 255.996 27.7234L255.996 27.7235C257.407 30.3728 258.374 32.274 259.104 34.5773C259.833 36.8765 260.355 39.6805 260.714 44.0824C261.44 52.9644 261.472 67.8345 261.472 97.1828V150.973V153.473H263.972H317.025C346.737 153.473 362.079 153.536 371.344 154.381C375.936 154.8 378.905 155.401 381.32 156.232C383.732 157.062 385.708 158.157 388.344 159.736C410.842 173.215 418.763 200.106 407.11 223.104C405.822 225.645 401.857 230.759 398.307 234.308L398.307 234.308C394.758 237.858 389.645 241.823 387.103 243.111C384.367 244.497 382.416 245.449 380.082 246.167C377.757 246.882 374.956 247.391 370.58 247.741C361.748 248.447 346.996 248.473 317.762 248.473H263.972H261.472V250.973V304.763C261.472 333.997 261.446 348.748 260.74 357.581C260.39 361.957 259.881 364.758 259.166 367.083C258.448 369.417 257.496 371.368 256.11 374.104C254.587 377.109 251.208 381.314 247.261 385.262C243.313 389.209 239.108 392.588 236.103 394.111C208.016 408.344 173.879 392.135 167.524 361.664C167.391 361.024 167.235 359.331 167.095 356.378C166.959 353.506 166.844 349.622 166.752 344.743C166.567 334.989 166.472 321.315 166.472 303.924V250.973V248.473H163.972H110.182C80.8336 248.473 65.9635 248.441 57.0814 247.715C52.6796 247.356 49.8756 246.834 47.5764 246.105C45.2731 245.375 43.3719 244.408 40.7226 242.997L40.7224 242.996C38.2348 241.671 33.1835 237.711 29.6406 234.208L29.6404 234.208C17.9711 222.673 13.2262 207.099 16.5243 191.282C20.2023 173.645 35.6437 158.203 53.2812 154.525C53.921 154.392 55.6135 154.236 58.5668 154.096C61.4386 153.96 65.3224 153.845 70.2013 153.753C79.956 153.568 93.6298 153.473 111.021 153.473H163.972H166.472Z" stroke="#FB8C00" stroke-width="5"/>
</svg>
